<svg width="14" height="16" viewBox="0 0 14 16" fill="none" xmlns="http://www.w3.org/2000/svg">
<path d="M13.6278 10.8808C13.6535 11.0295 13.6667 11.1804 13.6667 11.3333C13.6667 13.6345 10.6819 15.5 7.00004 15.5C3.31814 15.5 0.333374 13.6345 0.333374 11.3333C0.333374 11.1804 0.346551 11.0295 0.372233 10.8808C1.89552 12.6755 4.29755 13.8333 7.00004 13.8333C9.69798 13.8333 12.0965 12.6794 13.6195 10.8901L13.6278 10.8808ZM13.6278 7.5475C13.6535 7.69613 13.6667 7.8471 13.6667 8C13.6667 10.3012 10.6819 12.1667 7.00004 12.1667C3.31814 12.1667 0.333374 10.3012 0.333374 8C0.333374 7.8471 0.346551 7.69613 0.372233 7.5475C1.89552 9.34222 4.29755 10.5 7.00004 10.5C9.69798 10.5 12.0965 9.34611 13.6195 7.55676L13.6278 7.5475ZM7.00004 0.5C10.6819 0.5 13.6667 2.36548 13.6667 4.66667C13.6667 6.96785 10.6819 8.83333 7.00004 8.83333C3.31814 8.83333 0.333374 6.96785 0.333374 4.66667C0.333374 2.36548 3.31814 0.5 7.00004 0.5Z" fill="#F2C94C"/>
</svg>
