<svg width="375" height="44" viewBox="0 0 375 44" fill="none" xmlns="http://www.w3.org/2000/svg">
<path opacity="0.4" d="M336.5 21.5C336.5 20.7917 336.5 20.2905 336.532 19.8987C336.564 19.5128 336.624 19.2772 336.718 19.092C336.91 18.7157 337.216 18.4097 337.592 18.218C337.777 18.1236 338.013 18.0639 338.399 18.0324C338.791 18.0004 339.292 18 340 18H354C354.708 18 355.209 18.0004 355.601 18.0324C355.987 18.0639 356.223 18.1236 356.408 18.218C356.784 18.4097 357.09 18.7157 357.282 19.092C357.376 19.2772 357.436 19.5128 357.468 19.8987C357.5 20.2905 357.5 20.7917 357.5 21.5V24C357.5 24.7083 357.5 25.2095 357.468 25.6013C357.436 25.9872 357.376 26.2228 357.282 26.408C357.09 26.7843 356.784 27.0903 356.408 27.282C356.223 27.3764 355.987 27.4361 355.601 27.4676C355.209 27.4996 354.708 27.5 354 27.5H340C339.292 27.5 338.791 27.4996 338.399 27.4676C338.013 27.4361 337.777 27.3764 337.592 27.282C337.216 27.0903 336.91 26.7843 336.718 26.408C336.624 26.2228 336.564 25.9872 336.532 25.6013C336.5 25.2095 336.5 24.7083 336.5 24V21.5Z" stroke="black"/>
<path opacity="0.4" fill-rule="evenodd" clip-rule="evenodd" d="M359 24.874C359.863 24.652 360.5 23.8689 360.5 22.937C360.5 22.0051 359.863 21.222 359 21V24.874Z" fill="black"/>
<rect x="338" y="19.5" width="18" height="6.5" rx="1" fill="black"/>
<path fill-rule="evenodd" clip-rule="evenodd" d="M323.33 19.608C325.546 19.6081 327.677 20.4596 329.283 21.9863C329.404 22.1042 329.598 22.1027 329.717 21.983L330.873 20.8163C330.933 20.7556 330.967 20.6734 330.966 20.5878C330.966 20.5022 330.931 20.4204 330.87 20.3603C326.655 16.3208 320.005 16.3208 315.79 20.3603C315.729 20.4203 315.694 20.5021 315.694 20.5877C315.693 20.6733 315.727 20.7556 315.787 20.8163L316.943 21.983C317.062 22.1029 317.256 22.1044 317.377 21.9863C318.983 20.4595 321.114 19.608 323.33 19.608ZM323.33 23.4037C324.548 23.4036 325.722 23.8561 326.624 24.6733C326.746 24.7893 326.939 24.7868 327.058 24.6677L328.212 23.501C328.273 23.4398 328.307 23.3568 328.306 23.2705C328.305 23.1843 328.27 23.102 328.208 23.042C325.459 20.4856 321.204 20.4856 318.455 23.042C318.393 23.102 318.358 23.1843 318.357 23.2706C318.356 23.3569 318.39 23.4399 318.451 23.501L319.605 24.6677C319.724 24.7868 319.917 24.7893 320.039 24.6733C320.941 23.8567 322.114 23.4042 323.33 23.4037ZM325.643 25.9575C325.645 26.044 325.611 26.1274 325.549 26.188L323.552 28.2037C323.493 28.2629 323.414 28.2963 323.33 28.2963C323.247 28.2963 323.167 28.2629 323.109 28.2037L321.111 26.188C321.049 26.1274 321.015 26.0439 321.017 25.9574C321.019 25.8709 321.056 25.789 321.121 25.731C322.396 24.6521 324.264 24.6521 325.54 25.731C325.604 25.7891 325.642 25.871 325.643 25.9575Z" fill="black"/>
<path fill-rule="evenodd" clip-rule="evenodd" d="M310.667 18.6667C310.667 18.1144 310.219 17.6667 309.667 17.6667H308.667C308.114 17.6667 307.667 18.1144 307.667 18.6667V27.3334C307.667 27.8856 308.114 28.3334 308.667 28.3334H309.667C310.219 28.3334 310.667 27.8856 310.667 27.3334V18.6667ZM304 20H305C305.552 20 306 20.4477 306 21V27.3334C306 27.8856 305.552 28.3334 305 28.3334H304C303.448 28.3334 303 27.8856 303 27.3334V21C303 20.4477 303.448 20 304 20ZM300.333 22.3334H299.333C298.781 22.3334 298.333 22.7811 298.333 23.3334V27.3334C298.333 27.8856 298.781 28.3334 299.333 28.3334H300.333C300.886 28.3334 301.333 27.8856 301.333 27.3334V23.3334C301.333 22.7811 300.886 22.3334 300.333 22.3334ZM296.667 25.3334C296.667 24.7811 296.219 24.3334 295.667 24.3334H294.667C294.114 24.3334 293.667 24.7811 293.667 25.3334V27.3334C293.667 27.8856 294.114 28.3334 294.667 28.3334H295.667C296.219 28.3334 296.667 27.8856 296.667 27.3334V25.3334Z" fill="black"/>
<path d="M32.6112 28.33H34.4643V17.7611H32.5966L29.8354 19.702V21.4818L32.5673 19.5629H32.6112V28.33ZM36.5446 20.8959V20.9178H38.3171V20.8885C38.3171 19.8412 39.1374 19.0648 40.236 19.0648C41.2834 19.0648 42.0671 19.7606 42.0671 20.6322C42.0671 21.4232 41.7375 21.9652 40.5363 23.1884L36.6472 27.0555V28.33H44.0739V26.7845H39.1667V26.7479L41.7814 24.1625C43.1657 22.7635 43.9128 21.8114 43.9128 20.5516C43.9128 18.8378 42.404 17.5487 40.2946 17.5487C38.1047 17.5487 36.5446 18.9476 36.5446 20.8959ZM46.4326 26.7845C47.0186 26.7845 47.48 26.3231 47.48 25.7299C47.48 25.1439 47.0186 24.6752 46.4326 24.6752C45.8394 24.6752 45.3779 25.1439 45.3779 25.7299C45.3779 26.3231 45.8394 26.7845 46.4326 26.7845ZM46.4326 21.4965C47.0186 21.4965 47.48 21.0277 47.48 20.4418C47.48 19.8558 47.0186 19.3871 46.4326 19.3871C45.8394 19.3871 45.3779 19.8558 45.3779 20.4418C45.3779 21.0277 45.8394 21.4965 46.4326 21.4965ZM53.9695 28.33H55.7713V26.3304H57.1922V24.785H55.7713V17.7611H53.0833C50.7908 21.0936 49.6116 22.976 48.6961 24.7045V26.3304H53.9695V28.33ZM50.41 24.7777C51.2522 23.1957 52.263 21.6356 53.9695 19.16H53.9988V24.829H50.41V24.7777ZM62.0924 28.5424C64.524 28.5424 66.2159 27.2826 66.2159 25.4735C66.2159 24.1112 65.2418 23.0345 63.8063 22.7562V22.7196C65.0074 22.3973 65.7838 21.4745 65.7838 20.3392C65.7838 18.7206 64.253 17.5487 62.0924 17.5487C59.9391 17.5487 58.3937 18.7279 58.3937 20.3319C58.3937 21.4818 59.1773 22.412 60.3785 22.7196V22.7562C58.943 23.0272 57.9762 24.1039 57.9762 25.4735C57.9762 27.2753 59.6461 28.5424 62.0924 28.5424ZM62.0924 27.0995C60.8253 27.0995 59.9317 26.3524 59.9317 25.3344C59.9317 24.309 60.8253 23.5619 62.0924 23.5619C63.3595 23.5619 64.253 24.3016 64.253 25.3344C64.253 26.3524 63.3595 27.0995 62.0924 27.0995ZM62.0924 22.119C61.0157 22.119 60.2613 21.4598 60.2613 20.5516C60.2613 19.6361 61.0157 18.9769 62.0924 18.9769C63.1617 18.9769 63.9161 19.6361 63.9161 20.5516C63.9161 21.4598 63.1544 22.119 62.0924 22.119Z" fill="black"/>
</svg>
