<svg width="159" height="26" viewBox="0 0 159 26" fill="none" xmlns="http://www.w3.org/2000/svg">
<path d="M42.0262 20.5H40.0062V6.4H43.3462L47.4862 17.54H47.7862L51.9662 6.4H55.2262V20.5H53.2062V8.98H52.9262L48.5862 20.5H46.6062L42.3262 8.98H42.0262V20.5ZM62.3265 9.96C63.6065 9.96 64.6132 10.38 65.3465 11.22C66.0932 12.0467 66.4665 13.2067 66.4665 14.7V20.5H65.0665L64.6065 18.88C64.2732 19.4 63.8265 19.8333 63.2665 20.18C62.7065 20.5267 62.0332 20.7 61.2465 20.7C60.5532 20.7 59.9332 20.56 59.3865 20.28C58.8398 20 58.4132 19.6133 58.1065 19.12C57.7998 18.6133 57.6465 18.0467 57.6465 17.42C57.6465 16.4467 58.0332 15.6667 58.8065 15.08C59.5798 14.4933 60.6998 14.2 62.1665 14.2H64.5065C64.4532 13.3867 64.2265 12.76 63.8265 12.32C63.4265 11.8667 62.8932 11.64 62.2265 11.64C61.7198 11.64 61.2732 11.76 60.8865 12C60.4998 12.24 60.2065 12.5533 60.0065 12.94L58.1865 12.64C58.4532 11.8133 58.9665 11.16 59.7265 10.68C60.4865 10.2 61.3532 9.96 62.3265 9.96ZM61.6665 19.04C62.5065 19.04 63.1865 18.7667 63.7065 18.22C64.2398 17.66 64.5065 16.8933 64.5065 15.92V15.8H62.2265C60.4932 15.8 59.6265 16.32 59.6265 17.36C59.6265 17.8667 59.8132 18.2733 60.1865 18.58C60.5598 18.8867 61.0532 19.04 61.6665 19.04ZM71.1273 20.5H69.1673V10.16H75.9873V11.96H71.1273V20.5ZM81.3751 9.96C82.6551 9.96 83.6617 10.38 84.3951 11.22C85.1417 12.0467 85.5151 13.2067 85.5151 14.7V20.5H84.1151L83.6551 18.88C83.3217 19.4 82.8751 19.8333 82.3151 20.18C81.7551 20.5267 81.0817 20.7 80.2951 20.7C79.6017 20.7 78.9817 20.56 78.4351 20.28C77.8884 20 77.4617 19.6133 77.1551 19.12C76.8484 18.6133 76.6951 18.0467 76.6951 17.42C76.6951 16.4467 77.0817 15.6667 77.8551 15.08C78.6284 14.4933 79.7484 14.2 81.2151 14.2H83.5551C83.5017 13.3867 83.2751 12.76 82.8751 12.32C82.4751 11.8667 81.9417 11.64 81.2751 11.64C80.7684 11.64 80.3217 11.76 79.9351 12C79.5484 12.24 79.2551 12.5533 79.0551 12.94L77.2351 12.64C77.5017 11.8133 78.0151 11.16 78.7751 10.68C79.5351 10.2 80.4017 9.96 81.3751 9.96ZM80.7151 19.04C81.5551 19.04 82.2351 18.7667 82.7551 18.22C83.2884 17.66 83.5551 16.8933 83.5551 15.92V15.8H81.2751C79.5417 15.8 78.6751 16.32 78.6751 17.36C78.6751 17.8667 78.8617 18.2733 79.2351 18.58C79.6084 18.8867 80.1017 19.04 80.7151 19.04ZM93.8759 15.22C94.4225 15.38 94.8759 15.6733 95.2359 16.1C95.5959 16.5133 95.7759 17.0267 95.7759 17.64C95.7759 18.2133 95.6092 18.7333 95.2759 19.2C94.9425 19.6533 94.4625 20.02 93.8359 20.3C93.2225 20.5667 92.5092 20.7 91.6959 20.7C90.6025 20.7 89.6625 20.4467 88.8759 19.94C88.0892 19.42 87.5692 18.7267 87.3159 17.86L89.1359 17.56C89.5759 18.52 90.4225 19 91.6759 19C92.3692 19 92.8959 18.8733 93.2559 18.62C93.6292 18.3533 93.8159 17.9867 93.8159 17.52C93.8159 17.1067 93.6425 16.7733 93.2959 16.52C92.9625 16.2667 92.4225 16.14 91.6759 16.14H90.3159V14.42H91.6759C92.3159 14.42 92.8025 14.3 93.1359 14.06C93.4825 13.82 93.6559 13.5 93.6559 13.1C93.6559 12.6733 93.4692 12.3267 93.0959 12.06C92.7359 11.7933 92.2892 11.66 91.7559 11.66C91.2359 11.66 90.7692 11.7867 90.3559 12.04C89.9425 12.2933 89.6292 12.64 89.4159 13.08L87.5959 12.76C87.9025 11.8667 88.4292 11.18 89.1759 10.7C89.9359 10.2067 90.8159 9.96 91.8159 9.96C92.5359 9.96 93.1825 10.0867 93.7559 10.34C94.3425 10.5933 94.7959 10.9467 95.1159 11.4C95.4492 11.8533 95.6159 12.36 95.6159 12.92C95.6159 13.4933 95.4559 13.98 95.1359 14.38C94.8159 14.78 94.3959 15.06 93.8759 15.22ZM101.099 20.5H98.1991V10.16H100.099V18.3H100.399L104.579 10.16H107.479V20.5H105.579V12.38H105.279L101.099 20.5ZM117.212 14.38V10.16H119.172V20.5H117.212V16.18H112.232V20.5H110.272V10.16H112.232V14.38H117.212Z" fill="black"/>
</svg>
