<svg width="32" height="12" viewBox="0 0 32 12" fill="none" xmlns="http://www.w3.org/2000/svg">
<path d="M3.55225 11H4.82666V0.431152H3.5376L0.725098 2.45264V3.84424L3.52295 1.83008H3.55225V11ZM10.9001 11.1758C13.1413 11.1758 14.738 9.91602 14.738 8.14355C14.738 6.83252 13.8298 5.74854 12.4602 5.42627V5.39697C13.6101 5.03076 14.3059 4.13721 14.3059 3.03857C14.3059 1.42725 12.8777 0.255371 10.9001 0.255371C8.93725 0.255371 7.48705 1.43457 7.48705 3.03125C7.48705 4.14453 8.1975 5.04541 9.34008 5.39697V5.42627C7.97777 5.74121 7.06957 6.8252 7.06957 8.14355C7.06957 9.90869 8.66625 11.1758 10.9001 11.1758ZM10.9001 10.0259C9.44994 10.0259 8.4099 9.19824 8.4099 8.04834C8.4099 6.89111 9.44994 6.06348 10.9001 6.06348C12.3577 6.06348 13.3904 6.88379 13.3904 8.04834C13.3904 9.19824 12.3577 10.0259 10.9001 10.0259ZM10.9001 4.90625C9.66234 4.90625 8.79809 4.18115 8.79809 3.15576C8.79809 2.12305 9.66234 1.39062 10.9001 1.39062C12.1379 1.39062 13.0022 2.11572 13.0022 3.15576C13.0022 4.18115 12.1306 4.90625 10.9001 4.90625ZM15.9555 3.47803V3.48535H17.23V3.47803C17.23 2.29883 18.1675 1.40527 19.4053 1.40527C20.5698 1.40527 21.5 2.21826 21.5 3.23633C21.5 4.11523 21.1631 4.6792 19.7422 6.17334L16.0215 10.0918V11H22.9941V9.82812H17.8452V9.79883L20.5185 7.0376C22.2837 5.21387 22.8183 4.33496 22.8183 3.15576C22.8183 1.53711 21.3315 0.255371 19.4419 0.255371C17.4497 0.255371 15.9555 1.63232 15.9555 3.47803ZM26.4309 6.12207H27.7566C29.2654 6.12207 30.2029 6.89111 30.2029 8.13623C30.2029 9.24219 29.1994 10.0332 27.8005 10.0332C26.3796 10.0332 25.4787 9.28613 25.3615 8.20215H24.0945C24.1897 9.95264 25.6032 11.1758 27.8152 11.1758C29.8879 11.1758 31.5432 9.90869 31.5432 8.09229C31.5432 6.60547 30.5178 5.6167 28.9211 5.52148V5.49219C30.2395 5.25781 31.0891 4.30566 31.0891 2.97998C31.0891 1.39062 29.6609 0.255371 27.7712 0.255371C25.7863 0.255371 24.4533 1.40527 24.3069 3.19971H25.5739C25.6911 2.09375 26.4968 1.39795 27.7126 1.39795C29.0529 1.39795 29.7634 2.1084 29.7634 3.15576C29.7634 4.2251 28.9138 5.00879 27.698 5.00879H26.4309V6.12207Z" fill="#F2F2F2"/>
</svg>
