<svg width="9" height="10" viewBox="0 0 9 10" fill="none" xmlns="http://www.w3.org/2000/svg">
<path d="M8.47668 6.7285C8.49209 6.81768 8.5 6.90826 8.5 7C8.5 8.38071 6.70914 9.5 4.5 9.5C2.29086 9.5 0.5 8.38071 0.5 7C0.5 6.90826 0.507906 6.81768 0.523315 6.7285C1.43729 7.80533 2.87851 8.5 4.5 8.5C6.11877 8.5 7.55786 7.80766 8.47166 6.73406L8.47668 6.7285ZM8.47668 4.7285C8.49209 4.81768 8.5 4.90826 8.5 5C8.5 6.38071 6.70914 7.5 4.5 7.5C2.29086 7.5 0.5 6.38071 0.5 5C0.5 4.90826 0.507906 4.81768 0.523315 4.7285C1.43729 5.80533 2.87851 6.5 4.5 6.5C6.11877 6.5 7.55786 5.80766 8.47166 4.73406L8.47668 4.7285ZM4.5 0.5C6.70914 0.5 8.5 1.61929 8.5 3C8.5 4.38071 6.70914 5.5 4.5 5.5C2.29086 5.5 0.5 4.38071 0.5 3C0.5 1.61929 2.29086 0.5 4.5 0.5Z" fill="#FBB041"/>
</svg>
